# xmcd
#
# Track frame offsets: 
#        150
#        14022
#        27774
#        40233
#        54930
#        66017
#        81102
#        93953
#        109560
#        124482
#        142135
#        154275
#        167143
#        181698
#
# Disc length: 2674 seconds
#
# Revision: 0
# Processed by: cddbd v1.5PL3 Copyright (c) Steve Scherf et al.
# Submitted via: ExactAudioCopy v0.95a4
#
DISCID=b60a700e
DTITLE=Don Fontenot - Le Necessaire
DYEAR=1900
DGENRE=Southern Rock
TTITLE0=The Dance Hall
TTITLE1=The Rambler
TTITLE2=Mistake Of A Fool
TTITLE3=Last Year's Waltz
TTITLE4=Back To Church Point
TTITLE5=The Porch Swing
TTITLE6=Mad Mother-In-Law
TTITLE7=Unlucky Waltz
TTITLE8=Cajun Boogie Man
TTITLE9=I'll Never Let You Go
TTITLE10=Cypress Inn Special
TTITLE11=I Have A Broken Heart
TTITLE12=The Mardi Gras Run
TTITLE13=Le Necessaire
EXTD=
EXTT0=
EXTT1=
EXTT2=
EXTT3=
EXTT4=
EXTT5=
EXTT6=
EXTT7=
EXTT8=
EXTT9=
EXTT10=
EXTT11=
EXTT12=
EXTT13=
PLAYORDER=
